# This file uses centimeters as units for non-parametric coordinates.

mtllib skull.mtl
g default
v -0.299938 -0.192274 0.435310
v 0.299938 -0.192274 0.435310
v -0.256753 0.228517 0.405930
v 0.256753 0.228517 0.405930
v -0.333016 0.287129 -0.253386
v 0.333016 0.287129 -0.253386
v -0.293572 -0.429749 -0.380361
v 0.293572 -0.429749 -0.380361
v -0.373592 0.000000 0.410025
v -0.347598 0.000000 -0.394806
v 0.347598 0.000000 -0.394806
v 0.373592 0.000000 0.410025
v -0.397596 0.309962 0.000000
v -0.483027 0.000000 0.000000
v -0.443779 -0.401923 0.000000
v 0.443779 -0.401923 0.000000
v 0.483027 0.000000 0.000000
v 0.397596 0.309962 0.000000
v 0.000000 -0.241655 0.547418
v 0.000000 0.000000 0.547418
v 0.000000 0.401398 0.478906
v 0.000000 0.500000 0.000000
v 0.000000 0.453465 -0.425006
v 0.000000 0.000000 -0.566860
v 0.000000 -0.500000 -0.503951
v 0.000000 -0.460075 0.000000
v 0.261514 0.000000 0.451243
v 0.209957 -0.207088 0.468942
v 0.310646 -0.419369 0.000000
v 0.220865 -0.476683 -0.417438
v 0.243319 0.000000 -0.477526
v 0.233111 0.429641 -0.314194
v 0.278318 0.461847 0.000000
v 0.179727 0.389814 0.427823
v -0.261514 0.000000 0.451243
v -0.209957 -0.207088 0.468942
v -0.310646 -0.419369 0.000000
v -0.220865 -0.476683 -0.417438
v -0.243319 0.000000 -0.477526
v -0.233111 0.429641 -0.314194
v -0.278318 0.461847 0.000000
v -0.179727 0.389814 0.427823
v -0.374084 -0.403842 -0.228217
v -0.453862 0.000000 -0.263544
v -0.386618 0.296262 -0.160022
v -0.251194 0.476366 -0.188517
v 0.000000 0.492549 -0.255003
v 0.251194 0.476366 -0.188517
v 0.386618 0.296262 -0.160022
v 0.453862 0.000000 -0.263544
v 0.374084 -0.403842 -0.228217
v 0.256777 -0.476432 -0.315769
v 0.000000 -0.506705 -0.367676
v -0.256777 -0.476432 -0.315769
v 0.000000 -0.602940 -0.347791
v -0.256777 -0.572668 -0.295883
v -0.220865 -0.595593 -0.397553
v 0.000000 -0.618910 -0.484066
v 0.256777 -0.572668 -0.295883
v 0.220865 -0.595593 -0.397553
vt 0.396912 0.033170
vt 0.617278 0.037519
vt 0.426607 0.153040
vt 0.582956 0.156225
vt 0.383588 0.427197
vt 0.629338 0.378177
vt 0.398544 0.701538
vt 0.585376 0.706497
vt 0.393715 0.963059
vt 0.576093 0.967974
vt 0.885080 0.067612
vt 0.766952 0.251546
vt 0.128142 0.052916
vt 0.239104 0.241251
vt 0.392523 0.093750
vt 0.169932 0.173220
vt 0.385160 0.525760
vt 0.607625 0.531201
vt 0.838692 0.186223
vt 0.619330 0.098245
vt 0.315582 0.217232
vt 0.370200 0.285635
vt 0.282523 0.129183
vt 0.244775 0.021050
vt 0.359343 0.819777
vt 0.618142 0.826737
vt 0.769760 0.031282
vt 0.727880 0.137887
vt 0.633707 0.291357
vt 0.691451 0.224607
vt 0.507634 0.007261
vt 0.484213 0.991126
vt 0.506395 0.072633
vt 0.504268 0.180219
vt 0.501594 0.306110
vt 0.499211 0.411939
vt 0.496265 0.534150
vt 0.726517 0.649452
vt 0.488676 0.825845
vt 0.589373 0.089123
vt 0.584484 0.025319
vt 0.548788 0.975116
vt 0.579559 0.824986
vt 0.799216 0.675827
vt 0.570553 0.533464
vt 0.571973 0.396468
vt 0.582372 0.302509
vt 0.549863 0.187918
vt 0.422824 0.085798
vt 0.430156 0.022278
vt 0.420596 0.971662
vt 0.397964 0.820111
vt 0.672507 0.657295
vt 0.422085 0.529830
vt 0.427243 0.393124
vt 0.421026 0.298979
vt 0.458399 0.186028
vt 0.177442 0.043858
vt 0.377690 0.751703
vt 0.214424 0.155854
vt 0.269404 0.230214
vt 0.363066 0.338561
vt 0.427640 0.353110
vt 0.500134 0.371898
vt 0.573384 0.356385
vt 0.638532 0.344633
vt 0.737098 0.239353
vt 0.794901 0.167158
vt 0.603491 0.757745
vt 0.836165 0.056665
vt 0.785265 0.731155
vt 0.724557 0.726942
vt 0.645109 0.695191
vt 0.725113 0.704969
vt 0.664510 0.705958
vt 0.676622 0.684341
vt 0.725847 0.675943
vt 0.785588 0.709020
vt 0.774585 0.686819
vt 0.613944 0.432673
vt 0.588203 0.665288
vt 0.397856 0.660443
vt 0.370771 0.372429
vt 0.563342 0.678695
vt 0.563342 0.678695
vt 0.780062 0.660015
vt 0.566885 0.727392
vt 0.805509 0.699248
vt 0.422011 0.675048
vt 0.422011 0.675048
vt 0.652577 0.672118
vt 0.415878 0.723399
vt 0.663713 0.728081
vt 0.491030 0.738748
vt 0.493137 0.658817
vn -0.349965 0.090504 0.932381
vn -0.347618 -0.003890 0.937628
vn 0.000000 -0.003145 0.999995
vn 0.000000 0.091351 0.995819
vn -0.480724 0.859463 0.173861
vn -0.410232 0.872540 0.265299
vn 0.000000 0.980117 0.198423
vn 0.000000 0.991404 0.130832
vn -0.403788 -0.123466 -0.906483
vn -0.455943 0.098739 -0.884515
vn -0.000000 0.093664 -0.995604
vn 0.000000 -0.133590 -0.991037
vn -0.190722 -0.892157 0.409488
vn -0.188381 -0.934896 0.300803
vn 0.000000 -0.954228 0.299081
vn 0.000000 -0.913714 0.406358
vn 0.933114 -0.163674 0.320169
vn 0.984697 -0.163108 0.061386
vn 0.989818 0.048835 0.133700
vn 0.943463 0.068615 0.324299
vn -0.989818 0.048835 0.133700
vn -0.984697 -0.163108 0.061386
vn -0.933114 -0.163674 0.320169
vn -0.943463 0.068615 0.324299
vn -0.897028 0.404067 0.179081
vn -0.861531 0.398749 0.314267
vn -0.449328 0.309342 -0.838100
vn 0.000000 0.330890 -0.943669
vn 0.897028 0.404067 0.179081
vn 0.861531 0.398749 0.314267
vn -0.322288 0.143476 0.935706
vn 0.000000 0.149404 0.988776
vn -0.831865 -0.007109 -0.554933
vn -0.940170 0.012238 -0.340486
vn -0.894727 0.385725 -0.225120
vn -0.776835 0.390944 -0.493650
vn -0.830391 -0.165064 -0.532170
vn -0.924406 -0.160117 -0.346173
vn 0.000000 -0.988462 0.151467
vn -0.066857 -0.986251 0.151128
vn -0.066857 -0.986251 0.151128
vn 0.000000 -0.988462 0.151467
vn 0.940170 0.012238 -0.340486
vn 0.924406 -0.160117 -0.346173
vn 0.830391 -0.165064 -0.532170
vn 0.831865 -0.007109 -0.554933
vn 0.894727 0.385725 -0.225120
vn 0.776835 0.390944 -0.493650
vn -0.398343 0.853216 -0.336669
vn -0.385446 0.913247 -0.131952
vn -0.000000 0.991489 -0.130191
vn -0.000000 0.957292 -0.289124
vn 0.349965 0.090504 0.932381
vn 0.347618 -0.003890 0.937628
vn 0.347884 -0.008166 0.937502
vn 0.402981 0.092667 0.910505
vn 0.322288 0.143476 0.935706
vn 0.448032 0.182863 0.875116
vn 0.480724 0.859463 0.173861
vn 0.410232 0.872540 0.265299
vn 0.398343 0.853216 -0.336669
vn 0.385446 0.913247 -0.131951
vn 0.455942 0.098739 -0.884515
vn 0.449328 0.309342 -0.838100
vn 0.681193 0.306282 -0.664957
vn 0.653883 0.129708 -0.745395
vn 0.403788 -0.123466 -0.906483
vn 0.577572 -0.115185 -0.808173
vn 0.350773 -0.936385 0.011880
vn 0.192598 -0.976848 0.093135
vn 0.613154 -0.763551 -0.202563
vn 0.613154 -0.763551 -0.202563
vn 0.190722 -0.892157 0.409488
vn 0.188381 -0.934896 0.300803
vn 0.249479 -0.917643 0.309341
vn 0.194419 -0.867718 0.457457
vn 0.066857 -0.986251 0.151128
vn 0.066857 -0.986251 0.151128
vn -0.347884 -0.008166 0.937502
vn -0.402981 0.092667 0.910505
vn -0.249479 -0.917643 0.309341
vn -0.194419 -0.867718 0.457457
vn -0.613154 -0.763551 -0.202563
vn -0.613154 -0.763551 -0.202563
vn -0.192598 -0.976848 0.093135
vn -0.350773 -0.936385 0.011880
vn -0.653883 0.129708 -0.745395
vn -0.577572 -0.115185 -0.808173
vn -0.681193 0.306282 -0.664957
vn -0.448032 0.182863 0.875116
vn 0.000000 -0.989945 0.141456
vn -0.000000 0.202358 0.979312
vn 0.216561 0.197556 0.956072
vn 0.216561 0.197556 0.956072
vn -0.000000 0.202358 0.979312
vn -0.943329 -0.060324 -0.326331
vn -0.943329 -0.060324 -0.326331
vn -0.943329 -0.060324 -0.326331
vn -0.943329 -0.060324 -0.326331
vn -0.374384 -0.152944 -0.914574
vn 0.000000 -0.164939 -0.986304
vn 0.000000 -0.164939 -0.986304
vn -0.374384 -0.152944 -0.914574
vn -0.216561 0.197556 0.956072
vn -0.216561 0.197556 0.956072
vn 0.374384 -0.152944 -0.914574
vn 0.374384 -0.152944 -0.914574
vn 0.943329 -0.060324 -0.326331
vn 0.943329 -0.060324 -0.326331
vn 0.943329 -0.060324 -0.326331
vn 0.943329 -0.060324 -0.326331
s 1
g pCube9
usemtl initialShadingGroup
f 35/49/1 36/50/2 19/31/3 20/33/4
s 2
f 41/56/5 42/57/6 21/34/7 22/35/8
s 3
f 38/89/9 39/54/10 24/37/11 25/95/12
s 4
f 36/51/13 37/52/14 26/39/15 19/32/16
s 2
f 2/2/17 16/27/18 17/28/19 12/20/20
f 14/23/21 15/24/22 1/1/23 9/15/24
f 13/21/25 14/23/21 9/15/24 3/3/26
s 3
f 39/54/10 40/55/27 23/36/28 24/37/11
s 2
f 12/20/20 17/28/19 18/30/29 4/4/30
s 1
f 42/57/31 35/49/1 20/33/4 21/34/32
s 2
f 10/16/33 44/60/34 45/61/35 5/14/36
f 7/13/37 43/58/38 44/60/34 10/16/33
s 8
f 55/74/39 56/75/40 57/76/41 58/77/42
s 2
f 50/68/43 51/70/44 8/11/45 11/19/46
f 49/67/47 50/68/43 11/19/46 6/12/48
f 40/55/49 46/63/50 47/64/51 23/36/52
s 1
f 27/40/53 28/41/54 2/2/55 12/20/56
f 34/48/57 27/40/53 12/20/56 4/4/58
s 2
f 33/47/59 34/48/60 4/4/30 18/29/29
f 32/46/61 48/65/62 49/66/47 6/6/48
s 3
f 31/45/63 32/46/64 6/80/65 11/18/66
f 30/85/67 31/45/63 11/18/66 8/81/68
s 4
f 51/69/69 52/87/70 30/84/71 8/8/72
f 28/42/73 29/43/74 16/26/75 2/10/76
s 1
f 20/33/4 19/31/3 28/41/54 27/40/53
s 4
f 19/32/16 26/39/15 29/43/74 28/42/73
s 8
f 59/78/77 55/74/39 58/77/42 60/79/78
s 3
f 25/95/12 24/37/11 31/45/63 30/85/67
f 24/37/11 23/36/28 32/46/64 31/45/63
s 2
f 23/36/52 47/64/51 48/65/62 32/46/61
f 22/35/8 21/34/7 34/48/60 33/47/59
s 1
f 21/34/32 20/33/4 27/40/53 34/48/57
f 1/1/79 36/50/2 35/49/1 9/15/80
s 4
f 15/25/81 37/52/14 36/51/13 1/9/82
f 7/7/83 38/90/84 54/92/85 43/59/86
s 3
f 10/17/87 39/54/10 38/89/9 7/82/88
f 5/5/89 40/55/27 39/54/10 10/17/87
s 2
f 45/62/35 46/63/50 40/55/49 5/83/36
f 3/3/26 42/57/6 41/56/5 13/22/25
s 1
f 9/15/80 35/49/1 42/57/31 3/3/90
s 2
f 44/60/34 43/58/38 15/24/22 14/23/21
f 45/61/35 44/60/34 14/23/21 13/21/25
f 13/22/25 41/56/5 46/63/50 45/62/35
f 47/64/51 46/63/50 41/56/5 22/35/8
f 48/65/62 47/64/51 22/35/8 33/47/59
f 49/66/47 48/65/62 33/47/59 18/29/29
f 18/30/29 17/28/19 50/68/43 49/67/47
f 17/28/19 16/27/18 51/70/44 50/68/43
s 4
f 29/43/74 52/87/70 51/69/69 16/26/75
f 26/39/15 53/94/91 52/87/70 29/43/74
f 37/52/14 54/92/85 53/94/91 26/39/15
f 43/59/86 54/92/85 37/52/14 15/25/81
s 10
f 53/72/92 54/93/93 56/75/94 55/74/95
s off
f 54/73/96 38/91/97 57/76/98 56/75/99
s 11
f 38/53/100 25/38/101 58/77/102 57/76/103
s 10
f 52/71/104 53/72/92 55/74/95 59/78/105
s 11
f 25/38/101 30/86/106 60/79/107 58/77/102
s off
f 30/44/108 52/88/109 59/78/110 60/79/111
