# This file uses centimeters as units for non-parametric coordinates.

mtllib toast.mtl
g default
v -0.400660 0.087768 -0.478057
v 0.400660 0.087768 -0.478057
v -0.400660 -0.087768 -0.478057
v 0.400660 -0.087768 -0.478057
v -0.370134 0.087768 0.153872
v -0.370134 -0.087768 0.153872
v 0.370134 -0.087768 0.153872
v 0.370134 0.087768 0.153872
v 0.000000 -0.087768 0.437441
v 0.000000 0.087768 0.437441
v 0.000000 0.087768 0.153872
v 0.000000 0.087768 -0.478057
v 0.000000 -0.087768 -0.478057
v 0.000000 -0.087768 0.153872
v -0.397177 -0.087768 0.248548
v -0.327484 -0.087768 0.391321
v -0.374616 -0.087768 0.333752
v -0.397177 0.087768 0.248548
v -0.374616 0.087768 0.333752
v -0.327484 0.087768 0.391321
v 0.327484 -0.087768 0.391321
v 0.397177 -0.087768 0.248548
v 0.374616 -0.087768 0.333752
v 0.327484 0.087768 0.391321
v 0.374616 0.087768 0.333752
v 0.397177 0.087768 0.248548
v -0.163742 -0.087768 0.430269
v -0.163742 0.087768 0.430269
v -0.385896 0.087768 0.291150
v -0.385896 -0.087768 0.291150
v 0.163742 -0.087768 0.430269
v 0.163742 0.087768 0.430269
v 0.385896 0.087768 0.291150
v 0.385896 -0.087768 0.291150
vt 0.322549 0.502988
vt 0.671076 0.501388
vt 0.322165 0.579655
vt 0.672214 0.577941
vt 0.747856 0.500800
vt 0.245796 0.503205
vt 0.328746 0.222349
vt 0.660972 0.855276
vt 0.739960 0.224922
vt 0.662184 0.221312
vt 0.496740 0.499884
vt 0.497164 0.577629
vt 0.498611 0.855955
vt 0.251081 0.226904
vt 0.320684 0.179966
vt 0.293639 0.067524
vt 0.495260 0.100246
vt 0.493841 0.023158
vt 0.745259 0.156837
vt 0.245906 0.184865
vt 0.352123 0.117701
vt 0.654472 0.041132
vt 0.670290 0.178719
vt 0.642882 0.959735
vt 0.499255 0.980658
vt 0.355422 0.961210
vt 0.324544 0.898619
vt 0.336256 0.856938
vt 0.673113 0.896832
vt 0.495563 0.224839
vt 0.638503 0.116719
vt 0.334610 0.936019
vt 0.257039 0.121234
vt 0.331111 0.142630
vt 0.663433 0.934332
vt 0.718113 0.090935
vt 0.659654 0.141490
vt 0.407910 0.026599
vt 0.427383 0.977920
vt 0.423877 0.101999
vt 0.325891 0.161296
vt 0.251826 0.139902
vt 0.329575 0.917318
vt 0.568118 0.024297
vt 0.571096 0.977183
vt 0.566659 0.101505
vt 0.664964 0.160106
vt 0.739726 0.138067
vt 0.668275 0.915582
vt 0.739726 0.138067
vt 0.582217 0.025986
vt 0.251666 0.139851
vt 0.421995 0.024763
vt 0.734213 0.119492
vt 0.272377 0.092373
vt 0.744327 0.183620
vt 0.696716 0.066205
vt 0.335741 0.042168
vt 0.246453 0.158519
vt 0.496262 0.023114
vn 0.000000 0.000000 1.000000
vn 0.000000 0.000000 1.000000
vn 0.139455 0.000000 0.990228
vn 0.139455 0.000000 0.990228
vn 0.000000 0.000000 -1.000000
vn 0.000000 0.000000 -1.000000
vn 0.000000 0.000000 -1.000000
vn 0.000000 0.000000 -1.000000
vn 0.993473 0.000000 -0.114069
vn 0.993473 0.000000 -0.114069
vn 0.999989 0.000000 0.004794
vn 0.999989 0.000000 0.004794
vn -0.999989 0.000000 0.004794
vn -0.999989 0.000000 0.004794
vn -0.993473 0.000000 -0.114069
vn -0.993473 0.000000 -0.114069
vn -0.998835 0.000000 0.048249
vn -0.998835 0.000000 0.048249
vn 0.000000 -1.000000 0.000000
vn 0.000000 -1.000000 0.000000
vn 0.000000 -1.000000 0.000000
vn 0.000000 -1.000000 0.000000
vn 0.998835 0.000000 0.048249
vn 0.998835 0.000000 0.048249
vn 0.000000 1.000000 0.000000
vn 0.000000 1.000000 0.000000
vn 0.000000 1.000000 0.000000
vn 0.000000 1.000000 0.000000
vn 0.000000 -1.000000 0.000000
vn 0.000000 -1.000000 0.000000
vn 0.000000 0.000000 -1.000000
vn 0.000000 0.000000 -1.000000
vn 0.000000 1.000000 0.000000
vn 0.000000 1.000000 0.000000
vn -0.416178 0.000000 0.909283
vn -0.416178 0.000000 0.909283
vn -0.139455 0.000000 0.990228
vn -0.139455 0.000000 0.990228
vn -0.966687 0.000000 0.255960
vn -0.966687 0.000000 0.255960
vn -0.863858 0.000000 0.503735
vn -0.863858 0.000000 0.503735
vn 0.416178 0.000000 0.909283
vn 0.863858 0.000000 0.503735
vn 0.863858 0.000000 0.503735
vn 0.416178 0.000000 0.909283
vn 0.966687 0.000000 0.255960
vn 0.966687 0.000000 0.255960
vn 0.000000 1.000000 0.000000
vn 0.000000 1.000000 0.000000
vn 0.000000 1.000000 0.000000
vn 0.000000 1.000000 0.000000
vn 0.000000 -1.000000 0.000000
vn 0.000000 -1.000000 0.000000
vn 0.000000 1.000000 0.000000
vn 0.000000 1.000000 0.000000
vn 0.000000 1.000000 0.000000
vn 0.000000 1.000000 0.000000
vn 0.000000 -1.000000 0.000000
vn 0.000000 -1.000000 0.000000
vn 0.000000 -1.000000 0.000000
vn 0.000000 -1.000000 0.000000
vn 0.000000 -1.000000 0.000000
vn 0.000000 -1.000000 0.000000
vn 0.000000 -1.000000 0.000000
vn 0.000000 1.000000 0.000000
vn 0.000000 1.000000 0.000000
vn 0.000000 1.000000 0.000000
vn 0.000000 -1.000000 0.000000
vn 0.000000 -1.000000 0.000000
s 1
g pCube11
usemtl initialShadingGroup
f 10/17/1 9/60/2 31/44/3 32/46/4
s 2
f 13/12/5 12/11/6 2/2/7 4/4/8
s 1
f 26/23/9 22/56/10 7/9/11 8/10/12
f 5/7/13 6/14/14 15/20/15 18/15/16
f 3/6/17 6/14/14 5/7/13 1/1/18
s 5
f 14/13/19 13/12/20 4/4/21 7/8/22
s 1
f 8/10/12 7/9/11 4/5/23 2/2/24
s 6
f 12/11/25 11/30/26 8/10/27 2/2/28
s 5
f 3/3/29 13/12/20 14/13/19 6/28/30
s 2
f 1/1/31 12/11/6 13/12/5 3/3/32
s 6
f 5/7/33 11/30/26 12/11/25 1/1/34
s 1
f 20/21/35 16/58/36 27/38/37 28/40/38
f 29/41/39 30/52/40 17/33/41 19/34/42
f 17/55/41 16/16/36 20/21/35 19/34/42
f 21/57/43 23/36/44 25/37/45 24/31/46
f 33/47/47 34/50/48 22/19/10 26/23/9
s 6
f 28/40/49 29/41/50 19/34/51 20/21/52
s 5
f 14/13/19 9/25/53 15/27/54 6/28/30
s 6
f 26/23/55 10/17/56 32/46/57 33/47/58
s 5
f 22/29/59 9/25/53 14/13/19 7/8/22
f 34/49/60 31/45/61 9/25/53 22/29/59
f 30/43/62 27/39/63 16/26/64 17/32/65
s 6
f 8/10/27 11/30/26 10/17/56 26/23/55
f 10/17/56 11/30/26 5/7/33 18/15/66
s 1
f 28/40/38 27/53/37 9/18/2 10/17/1
s 6
f 10/17/56 18/15/66 29/41/50 28/40/49
s 1
f 15/59/15 30/42/40 29/41/39 18/15/16
s 5
f 15/27/54 9/25/53 27/39/63 30/43/62
s 1
f 32/46/4 31/51/3 21/22/43 24/31/46
s 6
f 33/47/58 32/46/57 24/31/67 25/37/68
s 1
f 23/54/44 34/48/48 33/47/47 25/37/45
s 5
f 21/24/69 31/45/61 34/49/60 23/35/70
