# This file uses centimeters as units for non-parametric coordinates.

mtllib fish_ship_speed_upgrade2.mtl
g default
v 0.294165 2.766005 7.460305
v -0.275842 3.553971 2.577309
v 0.033870 7.727178 2.577309
v -0.663610 5.497991 2.712585
v -0.456024 6.703101 2.639454
vt 0.500000 0.000000
vt 0.000000 1.000000
vt 1.000000 1.000000
vt 0.495610 1.000000
vt 0.768286 1.000000
vn -0.982014 -0.040541 0.184406
vn -0.792105 0.406553 0.455286
vn -0.842774 0.345161 0.413033
vn -0.979976 0.002441 0.199099
vn -0.976304 -0.200421 0.081625
s 1
g sail_upgrade2 fishing_boat
usemtl initialShadingGroup
f 1/1/1 3/3/2 5/5/3
f 1/1/1 4/4/4 2/2/5
f 1/1/1 5/5/3 4/4/4
