# This file uses centimeters as units for non-parametric coordinates.

mtllib harpoon.mtl
g default
v -0.061186 0.061161 -1.182225
v -0.086531 -0.000000 -1.182225
v -0.061186 -0.061161 -1.182225
v 0.000000 -0.086495 -1.182225
v 0.061186 -0.061161 -1.182225
v 0.086531 -0.000000 -1.182225
v 0.061186 0.061161 -1.182225
v 0.000000 0.086495 -1.182225
v -0.051579 0.051558 -0.045727
v -0.072944 -0.000000 -0.045727
v -0.051579 -0.051558 -0.045727
v 0.000000 -0.072914 -0.045727
v 0.051579 -0.051558 -0.045727
v 0.072944 -0.000000 -0.045727
v 0.051579 0.051558 -0.045727
v 0.000000 0.072914 -0.045727
v 0.000000 -0.000000 -1.182225
v -0.024084 0.024074 0.868585
v -0.034060 -0.000000 0.868585
v 0.000000 -0.000000 0.868584
v -0.024084 -0.024074 0.868585
v 0.000000 -0.034046 0.868585
v 0.024084 -0.024074 0.868585
v 0.034060 -0.000000 0.868585
v 0.024084 0.024074 0.868585
v 0.000000 0.034046 0.868585
v 0.008888 0.000000 1.182225
v 0.008888 0.214965 0.554945
v -0.008888 0.000000 1.182225
v -0.008888 0.214965 0.554945
v -0.008888 -0.214965 0.554945
v 0.008888 -0.214965 0.554945
vt 0.610485 0.045765
vt 0.500000 0.000000
vt 0.389515 0.045765
vt 0.343750 0.156250
vt 0.389515 0.266735
vt 0.500000 0.312500
vt 0.610485 0.266735
vt 0.656250 0.156250
vt 0.375000 0.312500
vt 0.406250 0.312500
vt 0.437500 0.312500
vt 0.468750 0.312500
vt 0.500000 0.312500
vt 0.531250 0.312500
vt 0.562500 0.312500
vt 0.593750 0.312500
vt 0.625000 0.312500
vt 0.375000 0.687500
vt 0.406250 0.687500
vt 0.437500 0.687500
vt 0.468750 0.687500
vt 0.500000 0.687500
vt 0.531250 0.687500
vt 0.562500 0.687500
vt 0.593750 0.687500
vt 0.625000 0.687500
vt 0.610485 0.733265
vt 0.500000 0.687500
vt 0.389515 0.733265
vt 0.343750 0.843750
vt 0.389515 0.954235
vt 0.500000 1.000000
vt 0.610485 0.954235
vt 0.656250 0.843750
vt 0.500000 0.156250
vt 0.500000 0.843750
vt 0.610485 0.954235
vt 0.500000 1.000000
vt 0.389515 0.954235
vt 0.343750 0.843750
vt 0.389515 0.733265
vt 0.500000 0.687500
vt 0.610485 0.733265
vt 0.656250 0.843750
vt 0.250000 0.000000
vt 0.625000 0.000000
vt 0.625000 0.250000
vt 0.291667 0.333333
vt 0.625000 0.500000
vt 0.625000 0.750000
vt 0.375000 0.875000
vt 0.625000 1.000000
vt 0.875000 0.000000
vt 0.875000 0.250000
vn -0.706912 0.707201 0.011952
vn -0.999929 -0.000000 0.011954
vn -0.999745 0.000000 0.022575
vn -0.706782 0.707071 0.022570
vn -0.706911 -0.707202 0.011952
vn -0.706781 -0.707072 0.022570
vn 0.000000 -0.999929 0.011949
vn -0.000000 -0.999745 0.022565
vn 0.706911 -0.707202 0.011952
vn 0.706781 -0.707072 0.022570
vn 0.999929 -0.000000 0.011954
vn 0.999745 0.000000 0.022575
vn 0.706912 0.707201 0.011952
vn 0.706782 0.707071 0.022570
vn -0.000001 0.999929 0.011949
vn -0.000000 0.999745 0.022565
vn 0.000000 0.000000 -1.000000
vn 0.000000 0.000000 -1.000000
vn 0.000000 0.000000 -1.000000
vn 0.000000 0.000000 -1.000000
vn 0.000000 0.000000 -1.000000
vn 0.000000 0.000000 -1.000000
vn 0.000000 0.000002 -1.000000
vn 0.000001 0.000002 -1.000000
vn 0.000001 0.000000 -1.000000
vn -0.000000 -0.000003 1.000000
vn -0.000001 -0.000000 1.000000
vn -0.000002 -0.000000 1.000000
vn 0.000001 0.000003 1.000000
vn 0.000000 0.000004 1.000000
vn -0.000005 0.000002 1.000000
vn -0.000005 -0.000000 1.000000
vn -0.000003 -0.000002 1.000000
vn 0.000000 -0.000004 1.000000
vn -0.999097 -0.000000 0.042490
vn -0.706321 0.706616 0.042481
vn -0.706320 -0.706617 0.042481
vn -0.000000 -0.999098 0.042472
vn 0.706320 -0.706617 0.042481
vn 0.999097 -0.000000 0.042490
vn 0.706321 0.706616 0.042481
vn 0.000000 0.999098 0.042472
vn 0.000000 0.945993 0.324186
vn 0.000000 0.945993 0.324186
vn 0.000000 0.945993 0.324186
vn 0.000000 0.945993 0.324186
vn -1.000000 0.000000 0.000000
vn -1.000000 0.000000 0.000000
vn -1.000000 0.000000 0.000000
vn 0.000000 -0.945993 0.324186
vn 0.000000 -0.945993 0.324186
vn 0.000000 -0.945993 0.324186
vn 0.000000 -0.945993 0.324186
vn 1.000000 0.000000 -0.000000
vn 1.000000 0.000000 -0.000000
vn 1.000000 0.000000 -0.000000
vn 0.000000 0.000000 -1.000000
vn 0.000000 0.000000 -1.000000
vn 0.000000 0.000000 -1.000000
vn 0.000000 0.000000 -1.000000
s 1
g harpoon
usemtl initialShadingGroup
f 1/9/1 2/10/2 10/19/3 9/18/4
f 2/10/2 3/11/5 11/20/6 10/19/3
f 3/11/5 4/12/7 12/21/8 11/20/6
f 4/12/7 5/13/9 13/22/10 12/21/8
f 5/13/9 6/14/11 14/23/12 13/22/10
f 6/14/11 7/15/13 15/24/14 14/23/12
f 7/15/13 8/16/15 16/25/16 15/24/14
f 8/16/15 1/17/1 9/26/4 16/25/16
s 2
f 2/2/17 1/1/18 17/35/19
f 3/3/20 2/2/17 17/35/19
f 4/4/21 3/3/20 17/35/19
f 5/5/22 4/4/21 17/35/19
f 6/6/23 5/5/22 17/35/19
f 7/7/24 6/6/23 17/35/19
f 8/8/25 7/7/24 17/35/19
f 1/1/18 8/8/25 17/35/19
s 3
f 18/37/26 19/38/27 20/36/28
f 19/38/27 21/39/29 20/36/28
f 21/39/29 22/40/30 20/36/28
f 22/40/30 23/41/31 20/36/28
f 23/41/31 24/42/32 20/36/28
f 24/42/32 25/43/33 20/36/28
f 25/43/33 26/44/34 20/36/28
f 26/44/34 18/37/26 20/36/28
s 1
f 9/33/4 10/32/3 19/38/35 18/37/36
f 10/32/3 11/31/6 21/39/37 19/38/35
f 11/31/6 12/30/8 22/40/38 21/39/37
f 12/30/8 13/29/10 23/41/39 22/40/38
f 13/29/10 14/28/12 24/42/40 23/41/39
f 14/28/12 15/27/14 25/43/41 24/42/40
f 15/27/14 16/34/16 26/44/42 25/43/41
f 16/34/16 9/33/4 18/37/36 26/44/42
s off
f 27/45/43 28/46/44 30/47/45 29/48/46
f 29/48/47 30/47/48 31/49/49
f 29/48/50 31/49/51 32/50/52 27/51/53
f 27/51/54 32/50/55 28/52/56
f 28/46/57 32/53/58 31/54/59 30/47/60
